<?xml version="1.0" encoding="UTF-8" standalone="no"?>
<!DOCTYPE svg PUBLIC "-//W3C//DTD SVG 1.1//EN" "http://www.w3.org/Graphics/SVG/1.1/DTD/svg11.dtd">
<svg width="100%" height="100%" viewBox="0 0 1001 1001" version="1.1" xmlns="http://www.w3.org/2000/svg" xmlns:xlink="http://www.w3.org/1999/xlink" xml:space="preserve" xmlns:serif="http://www.serif.com/" style="fill-rule:evenodd;clip-rule:evenodd;stroke-linejoin:round;stroke-miterlimit:2;">
    <g transform="matrix(1,0,0,1,-1256,-2875)">
        <g transform="matrix(1.14708,0,0,1.14708,1256.74,-308.236)">
            <g id="icon">
                <g transform="matrix(0.87178,0,0,0.87178,-1095.6,268.714)">
                    <circle cx="1756.75" cy="3375.53" r="500" style="fill:rgb(18,18,18);"/>
                </g>
                <g transform="matrix(1.44753,0,0,1.44753,-517.695,1543.62)">
                    <g transform="matrix(1.1101,0,0,0.487517,-1366.57,961.028)">
                        <path d="M1803.39,226.111C1814.93,214.569 1828.07,214.569 1839.61,226.111C1878.1,264.595 1967.39,353.895 2002.98,389.475C2005.59,392.093 2007.28,397.989 2007.28,404.5C2007.28,411.011 2005.59,416.907 2002.98,419.525C1967.39,455.105 1878.1,544.405 1839.61,582.889C1828.07,594.431 1814.93,594.431 1803.39,582.889C1764.9,544.405 1675.61,455.105 1640.03,419.525C1637.41,416.907 1635.72,411.011 1635.72,404.5C1635.72,397.989 1637.41,392.093 1640.03,389.475C1675.61,353.895 1764.9,264.595 1803.39,226.111Z" style="fill:rgb(18,178,231);fill-opacity:0.75;"/>
                    </g>
                    <g transform="matrix(1.1101,0,0,0.487517,-1366.57,1021.55)">
                        <path d="M1803.39,226.111C1814.93,214.569 1828.07,214.569 1839.61,226.111C1878.1,264.595 1967.39,353.895 2002.98,389.475C2005.59,392.093 2007.28,397.989 2007.28,404.5C2007.28,411.011 2005.59,416.907 2002.98,419.525C1967.39,455.105 1878.1,544.405 1839.61,582.889C1828.07,594.431 1814.93,594.431 1803.39,582.889C1764.9,544.405 1675.61,455.105 1640.03,419.525C1637.41,416.907 1635.72,411.011 1635.72,404.5C1635.72,397.989 1637.41,392.093 1640.03,389.475C1675.61,353.895 1764.9,264.595 1803.39,226.111Z" style="fill:rgb(18,178,231);fill-opacity:0.5;"/>
                    </g>
                    <g transform="matrix(1.1101,0,0,0.487517,-1359.97,888.405)">
                        <path d="M1803.39,226.111C1814.93,214.569 1828.07,214.569 1839.61,226.111C1878.1,264.595 1967.39,353.895 2002.98,389.475C2005.59,392.093 2007.28,397.989 2007.28,404.5C2007.28,411.011 2005.59,416.907 2002.98,419.525C1967.39,455.105 1878.1,544.405 1839.61,582.889C1828.07,594.431 1814.93,594.431 1803.39,582.889C1764.9,544.405 1675.61,455.105 1640.03,419.525C1637.41,416.907 1635.72,411.011 1635.72,404.5C1635.72,397.989 1637.41,392.093 1640.03,389.475C1675.61,353.895 1764.9,264.595 1803.39,226.111Z" style="fill:rgb(18,178,231);"/>
                    </g>
                </g>
            </g>
        </g>
    </g>
</svg>
