<?xml version="1.0" encoding="UTF-8" standalone="no"?>
<!DOCTYPE svg PUBLIC "-//W3C//DTD SVG 1.1//EN" "http://www.w3.org/Graphics/SVG/1.1/DTD/svg11.dtd">
<svg width="100%" height="100%" viewBox="0 0 2445 325" version="1.1" xmlns="http://www.w3.org/2000/svg" xmlns:xlink="http://www.w3.org/1999/xlink" xml:space="preserve" xmlns:serif="http://www.serif.com/" style="fill-rule:evenodd;clip-rule:evenodd;stroke-linejoin:round;stroke-miterlimit:2;">
    <g transform="matrix(1,0,0,1,-4813,-2090)">
        <g transform="matrix(1,0,0,1,4121.58,-0.876805)">
            <g transform="matrix(1,0,0,1,254.608,1101.31)">
                <g id="icon">
                    <g transform="matrix(1.1101,0,0,0.487517,-1366.57,961.028)">
                        <path d="M1803.39,226.111C1814.93,214.569 1828.07,214.569 1839.61,226.111C1878.1,264.595 1967.39,353.895 2002.98,389.475C2005.59,392.093 2007.28,397.989 2007.28,404.5C2007.28,411.011 2005.59,416.907 2002.98,419.525C1967.39,455.105 1878.1,544.405 1839.61,582.889C1828.07,594.431 1814.93,594.431 1803.39,582.889C1764.9,544.405 1675.61,455.105 1640.03,419.525C1637.41,416.907 1635.72,411.011 1635.72,404.5C1635.72,397.989 1637.41,392.093 1640.03,389.475C1675.61,353.895 1764.9,264.595 1803.39,226.111Z" style="fill:rgb(18,178,231);fill-opacity:0.75;"/>
                    </g>
                    <g transform="matrix(1.1101,0,0,0.487517,-1366.57,1021.55)">
                        <path d="M1803.39,226.111C1814.93,214.569 1828.07,214.569 1839.61,226.111C1878.1,264.595 1967.39,353.895 2002.98,389.475C2005.59,392.093 2007.28,397.989 2007.28,404.5C2007.28,411.011 2005.59,416.907 2002.98,419.525C1967.39,455.105 1878.1,544.405 1839.61,582.889C1828.07,594.431 1814.93,594.431 1803.39,582.889C1764.9,544.405 1675.61,455.105 1640.03,419.525C1637.41,416.907 1635.72,411.011 1635.72,404.5C1635.72,397.989 1637.41,392.093 1640.03,389.475C1675.61,353.895 1764.9,264.595 1803.39,226.111Z" style="fill:rgb(18,178,231);fill-opacity:0.5;"/>
                    </g>
                    <g transform="matrix(1.1101,0,0,0.487517,-1359.97,888.405)">
                        <path d="M1803.39,226.111C1814.93,214.569 1828.07,214.569 1839.61,226.111C1878.1,264.595 1967.39,353.895 2002.98,389.475C2005.59,392.093 2007.28,397.989 2007.28,404.5C2007.28,411.011 2005.59,416.907 2002.98,419.525C1967.39,455.105 1878.1,544.405 1839.61,582.889C1828.07,594.431 1814.93,594.431 1803.39,582.889C1764.9,544.405 1675.61,455.105 1640.03,419.525C1637.41,416.907 1635.72,411.011 1635.72,404.5C1635.72,397.989 1637.41,392.093 1640.03,389.475C1675.61,353.895 1764.9,264.595 1803.39,226.111Z" style="fill:rgb(18,178,231);"/>
                    </g>
                </g>
                <g id="text">
                    <g transform="matrix(1.08417,0,0,1.08417,-460.162,-439.306)">
                        <g transform="matrix(300,0,0,300,3003.84,1572.92)">
                        </g>
                        <text x="1306.14px" y="1572.92px" style="font-family:'Montserrat-Medium', 'Montserrat';font-weight:500;font-size:300px;fill:rgb(18,18,18);">SEISMO<tspan x="2504.64px 2713.74px " y="1572.92px 1572.92px ">VI</tspan>Z</text>
                    </g>
                    <g transform="matrix(0.287027,0,0,0.287027,2479.62,913.007)">
                        <g transform="matrix(186.705,0,0,186.705,1420.67,567.357)">
                        </g>
                        <text x="1228.55px" y="567.357px" style="font-family:'Montserrat-Medium', 'Montserrat';font-weight:500;font-size:186.705px;fill:rgb(18,18,18);">™</text>
                    </g>
                </g>
            </g>
        </g>
    </g>
</svg>
